<svg xmlns="http://www.w3.org/2000/svg" xmlns:xlink="http://www.w3.org/1999/xlink" viewBox="0 0 16 44">
<path fill-rule="evenodd"  fill="rgb(93, 168, 239)"
 d="M8.000,-0.000 C5.679,-0.000 -0.000,7.211 -0.000,20.581 C-0.000,34.088 4.966,43.244 5.178,43.626 L5.384,44.000 L10.616,44.000 L10.822,43.626 C11.033,43.244 16.000,34.088 16.000,20.581 C16.000,7.211 10.321,-0.000 8.000,-0.000 ZM9.733,42.580 L8.727,42.580 L8.727,37.612 L7.273,37.612 L7.273,42.580 L6.267,42.580 C5.612,41.264 3.452,36.550 2.262,29.743 C3.376,31.407 5.063,33.184 7.628,34.675 C10.451,36.315 11.131,38.370 11.273,38.960 C10.607,40.754 10.023,41.999 9.733,42.580 ZM11.974,36.925 C11.361,35.866 10.281,34.563 8.373,33.454 C2.629,30.117 1.722,25.274 1.595,24.298 C1.534,23.460 1.497,22.598 1.478,21.719 C2.519,23.604 4.363,25.757 7.639,27.583 C12.312,30.189 13.098,32.768 13.112,32.814 C12.755,34.333 12.364,35.712 11.974,36.925 ZM8.361,26.339 C1.504,22.516 1.588,17.032 1.594,17.032 L1.593,17.032 C2.308,7.806 5.617,3.327 7.273,1.884 L7.273,24.129 L8.727,24.129 L8.727,1.884 C10.589,3.506 14.545,9.404 14.545,20.581 C14.545,24.310 14.144,27.713 13.570,30.684 C12.728,29.515 11.180,27.912 8.361,26.339 Z"/>
</svg>