<?xml version="1.0" encoding="UTF-8"?><!DOCTYPE svg PUBLIC "-//W3C//DTD SVG 1.1//EN" "http://www.w3.org/Graphics/SVG/1.1/DTD/svg11.dtd"><svg xmlns="http://www.w3.org/2000/svg"><symbol id="icon-facebook" viewBox="0 0 10 19">
    <title>
        facebook
    </title>
    <path d="M9.766.157v2.946H8.014c-.64 0-1.071.134-1.295.402-.223.268-.335.67-.335 1.205v2.11h3.27l-.435 3.303H6.384v8.471H2.97v-8.47H.123V6.82H2.97V4.387c0-1.384.387-2.457 1.161-3.22C4.904.404 5.934.023 7.222.023c1.093 0 1.941.045 2.544.134z" fill-rule="evenodd"/>
</symbol><symbol id="icon-logo" viewBox="0 0 16 44">
    <path fill-rule="evenodd" d="M8 0C5.679 0 0 7.211 0 20.581c0 13.507 4.966 22.663 5.178 23.045l.206.374h5.232l.206-.374C11.033 43.244 16 34.088 16 20.581 16 7.211 10.321 0 8 0zm1.733 42.58H8.727v-4.968H7.273v4.968H6.267c-.655-1.316-2.815-6.03-4.005-12.837 1.114 1.664 2.801 3.441 5.366 4.932 2.823 1.64 3.503 3.695 3.645 4.285-.666 1.794-1.25 3.039-1.54 3.62zm2.241-5.655c-.613-1.059-1.693-2.362-3.601-3.471-5.744-3.337-6.651-8.18-6.778-9.156-.061-.838-.098-1.7-.117-2.579 1.041 1.885 2.885 4.038 6.161 5.864 4.673 2.606 5.459 5.185 5.473 5.231a53.351 53.351 0 0 1-1.138 4.111zM8.361 26.339c-6.857-3.823-6.773-9.307-6.767-9.307h-.001c.715-9.226 4.024-13.705 5.68-15.148v22.245h1.454V1.884c1.862 1.622 5.818 7.52 5.818 18.697a53.29 53.29 0 0 1-.975 10.103c-.842-1.169-2.39-2.772-5.209-4.345z"/>
</symbol></svg>